<?xml version="1.0" encoding="UTF-8" standalone="no"?>
<!DOCTYPE svg PUBLIC "-//W3C//DTD SVG 1.1//EN"
 "http://www.w3.org/Graphics/SVG/1.1/DTD/svg11.dtd">
<!-- Generated by graphviz version 2.50.0 (0)
 -->
<!-- Pages: 1 -->
<svg width="2352pt" height="375pt"
 viewBox="0.00 0.00 2351.99 375.00" xmlns="http://www.w3.org/2000/svg" xmlns:xlink="http://www.w3.org/1999/xlink">
<g id="graph0" class="graph" transform="scale(1 1) rotate(0) translate(4 371)">
<polygon fill="white" stroke="transparent" points="-4,4 -4,-371 2347.99,-371 2347.99,4 -4,4"/>
<!-- 132886182205568 -->
<g id="node1" class="node">
<title>132886182205568</title>
<polygon fill="none" stroke="black" points="296.5,-55.5 296.5,-91.5 458.5,-91.5 458.5,-55.5 296.5,-55.5"/>
<text text-anchor="middle" x="336.5" y="-69.8" font-family="Times,serif" font-size="14.00">data 0.4169</text>
<polyline fill="none" stroke="black" points="376.5,-55.5 376.5,-91.5 "/>
<text text-anchor="middle" x="417.5" y="-69.8" font-family="Times,serif" font-size="14.00">grad 0.0000</text>
</g>
<!-- 132886182205760+ -->
<g id="node5" class="node">
<title>132886182205760+</title>
<ellipse fill="none" stroke="black" cx="526" cy="-73.5" rx="27" ry="18"/>
<text text-anchor="middle" x="526" y="-69.8" font-family="Times,serif" font-size="14.00">+</text>
</g>
<!-- 132886182205568&#45;&gt;132886182205760+ -->
<g id="edge36" class="edge">
<title>132886182205568&#45;&gt;132886182205760+</title>
<path fill="none" stroke="black" d="M458.61,-73.5C469.08,-73.5 479.35,-73.5 488.58,-73.5"/>
<polygon fill="black" stroke="black" points="488.87,-77 498.87,-73.5 488.87,-70 488.87,-77"/>
</g>
<!-- 132886182205568* -->
<g id="node2" class="node">
<title>132886182205568*</title>
<ellipse fill="none" stroke="black" cx="229" cy="-94.5" rx="27" ry="18"/>
<text text-anchor="middle" x="229" y="-90.8" font-family="Times,serif" font-size="14.00">*</text>
</g>
<!-- 132886182205568*&#45;&gt;132886182205568 -->
<g id="edge1" class="edge">
<title>132886182205568*&#45;&gt;132886182205568</title>
<path fill="none" stroke="black" d="M255.52,-90.84C264.46,-89.56 275.08,-88.04 286.26,-86.44"/>
<polygon fill="black" stroke="black" points="286.8,-89.89 296.2,-85.01 285.8,-82.97 286.8,-89.89"/>
</g>
<!-- 132886182203696 -->
<g id="node3" class="node">
<title>132886182203696</title>
<polygon fill="none" stroke="black" points="296.5,-165.5 296.5,-201.5 458.5,-201.5 458.5,-165.5 296.5,-165.5"/>
<text text-anchor="middle" x="336.5" y="-179.8" font-family="Times,serif" font-size="14.00">data 3.4000</text>
<polyline fill="none" stroke="black" points="376.5,-165.5 376.5,-201.5 "/>
<text text-anchor="middle" x="417.5" y="-179.8" font-family="Times,serif" font-size="14.00">grad 0.0629</text>
</g>
<!-- 132886182205952* -->
<g id="node10" class="node">
<title>132886182205952*</title>
<ellipse fill="none" stroke="black" cx="526" cy="-128.5" rx="27" ry="18"/>
<text text-anchor="middle" x="526" y="-124.8" font-family="Times,serif" font-size="14.00">*</text>
</g>
<!-- 132886182203696&#45;&gt;132886182205952* -->
<g id="edge15" class="edge">
<title>132886182203696&#45;&gt;132886182205952*</title>
<path fill="none" stroke="black" d="M437.9,-165.47C446.38,-162.62 454.95,-159.59 463,-156.5 473.44,-152.49 484.65,-147.61 494.62,-143.06"/>
<polygon fill="black" stroke="black" points="496.14,-146.21 503.74,-138.83 493.19,-139.86 496.14,-146.21"/>
</g>
<!-- 132886182205040* -->
<g id="node35" class="node">
<title>132886182205040*</title>
<ellipse fill="none" stroke="black" cx="526" cy="-238.5" rx="27" ry="18"/>
<text text-anchor="middle" x="526" y="-234.8" font-family="Times,serif" font-size="14.00">*</text>
</g>
<!-- 132886182203696&#45;&gt;132886182205040* -->
<g id="edge34" class="edge">
<title>132886182203696&#45;&gt;132886182205040*</title>
<path fill="none" stroke="black" d="M435.57,-201.63C444.79,-204.78 454.19,-208.13 463,-211.5 473.2,-215.4 484.17,-220.03 494,-224.35"/>
<polygon fill="black" stroke="black" points="492.83,-227.65 503.39,-228.52 495.67,-221.26 492.83,-227.65"/>
</g>
<!-- 132886182205760 -->
<g id="node4" class="node">
<title>132886182205760</title>
<polygon fill="none" stroke="black" points="593.5,-55.5 593.5,-91.5 755.5,-91.5 755.5,-55.5 593.5,-55.5"/>
<text text-anchor="middle" x="633.5" y="-69.8" font-family="Times,serif" font-size="14.00">data 0.4667</text>
<polyline fill="none" stroke="black" points="673.5,-55.5 673.5,-91.5 "/>
<text text-anchor="middle" x="714.5" y="-69.8" font-family="Times,serif" font-size="14.00">grad 0.0000</text>
</g>
<!-- 132886182206144+ -->
<g id="node15" class="node">
<title>132886182206144+</title>
<ellipse fill="none" stroke="black" cx="823" cy="-128.5" rx="27" ry="18"/>
<text text-anchor="middle" x="823" y="-124.8" font-family="Times,serif" font-size="14.00">+</text>
</g>
<!-- 132886182205760&#45;&gt;132886182206144+ -->
<g id="edge27" class="edge">
<title>132886182205760&#45;&gt;132886182206144+</title>
<path fill="none" stroke="black" d="M732.57,-91.63C741.79,-94.78 751.19,-98.13 760,-101.5 770.2,-105.4 781.17,-110.03 791,-114.35"/>
<polygon fill="black" stroke="black" points="789.83,-117.65 800.39,-118.52 792.67,-111.26 789.83,-117.65"/>
</g>
<!-- 132886182205760+&#45;&gt;132886182205760 -->
<g id="edge2" class="edge">
<title>132886182205760+&#45;&gt;132886182205760</title>
<path fill="none" stroke="black" d="M553.19,-73.5C561.95,-73.5 572.27,-73.5 583.11,-73.5"/>
<polygon fill="black" stroke="black" points="583.19,-77 593.19,-73.5 583.19,-70 583.19,-77"/>
</g>
<!-- 132886182203744 -->
<g id="node6" class="node">
<title>132886182203744</title>
<polygon fill="none" stroke="black" points="0,-309.5 0,-345.5 166,-345.5 166,-309.5 0,-309.5"/>
<text text-anchor="middle" x="40" y="-323.8" font-family="Times,serif" font-size="14.00">data 0.3427</text>
<polyline fill="none" stroke="black" points="80,-309.5 80,-345.5 "/>
<text text-anchor="middle" x="123" y="-323.8" font-family="Times,serif" font-size="14.00">grad &#45;1.9738</text>
</g>
<!-- 132886182204656* -->
<g id="node27" class="node">
<title>132886182204656*</title>
<ellipse fill="none" stroke="black" cx="229" cy="-327.5" rx="27" ry="18"/>
<text text-anchor="middle" x="229" y="-323.8" font-family="Times,serif" font-size="14.00">*</text>
</g>
<!-- 132886182203744&#45;&gt;132886182204656* -->
<g id="edge22" class="edge">
<title>132886182203744&#45;&gt;132886182204656*</title>
<path fill="none" stroke="black" d="M166.1,-327.5C174.95,-327.5 183.6,-327.5 191.5,-327.5"/>
<polygon fill="black" stroke="black" points="191.73,-331 201.73,-327.5 191.73,-324 191.73,-331"/>
</g>
<!-- 132886182203792 -->
<g id="node7" class="node">
<title>132886182203792</title>
<polygon fill="none" stroke="black" points="294.5,-275.5 294.5,-311.5 460.5,-311.5 460.5,-275.5 294.5,-275.5"/>
<text text-anchor="middle" x="334.5" y="-289.8" font-family="Times,serif" font-size="14.00">data 0.2621</text>
<polyline fill="none" stroke="black" points="374.5,-275.5 374.5,-311.5 "/>
<text text-anchor="middle" x="417.5" y="-289.8" font-family="Times,serif" font-size="14.00">grad &#45;0.9869</text>
</g>
<!-- 132886182204848+ -->
<g id="node31" class="node">
<title>132886182204848+</title>
<ellipse fill="none" stroke="black" cx="526" cy="-293.5" rx="27" ry="18"/>
<text text-anchor="middle" x="526" y="-289.8" font-family="Times,serif" font-size="14.00">+</text>
</g>
<!-- 132886182203792&#45;&gt;132886182204848+ -->
<g id="edge40" class="edge">
<title>132886182203792&#45;&gt;132886182204848+</title>
<path fill="none" stroke="black" d="M460.74,-293.5C470.57,-293.5 480.18,-293.5 488.85,-293.5"/>
<polygon fill="black" stroke="black" points="488.91,-297 498.91,-293.5 488.91,-290 488.91,-297"/>
</g>
<!-- 132886315301344 -->
<g id="node8" class="node">
<title>132886315301344</title>
<polygon fill="none" stroke="black" points="292,-220.5 292,-256.5 463,-256.5 463,-220.5 292,-220.5"/>
<text text-anchor="middle" x="334.5" y="-234.8" font-family="Times,serif" font-size="14.00">data &#45;0.0637</text>
<polyline fill="none" stroke="black" points="377,-220.5 377,-256.5 "/>
<text text-anchor="middle" x="420" y="-234.8" font-family="Times,serif" font-size="14.00">grad &#45;3.3555</text>
</g>
<!-- 132886315301344&#45;&gt;132886182205040* -->
<g id="edge17" class="edge">
<title>132886315301344&#45;&gt;132886182205040*</title>
<path fill="none" stroke="black" d="M463.3,-238.5C472.17,-238.5 480.81,-238.5 488.68,-238.5"/>
<polygon fill="black" stroke="black" points="488.89,-242 498.89,-238.5 488.89,-235 488.89,-242"/>
</g>
<!-- 132886182205952 -->
<g id="node9" class="node">
<title>132886182205952</title>
<polygon fill="none" stroke="black" points="591,-110.5 591,-146.5 758,-146.5 758,-110.5 591,-110.5"/>
<text text-anchor="middle" x="633.5" y="-124.8" font-family="Times,serif" font-size="14.00">data &#45;2.8161</text>
<polyline fill="none" stroke="black" points="676,-110.5 676,-146.5 "/>
<text text-anchor="middle" x="717" y="-124.8" font-family="Times,serif" font-size="14.00">grad 0.0000</text>
</g>
<!-- 132886182205952&#45;&gt;132886182206144+ -->
<g id="edge37" class="edge">
<title>132886182205952&#45;&gt;132886182206144+</title>
<path fill="none" stroke="black" d="M758.17,-128.5C767.75,-128.5 777.12,-128.5 785.59,-128.5"/>
<polygon fill="black" stroke="black" points="785.8,-132 795.8,-128.5 785.8,-125 785.8,-132"/>
</g>
<!-- 132886182205952*&#45;&gt;132886182205952 -->
<g id="edge3" class="edge">
<title>132886182205952*&#45;&gt;132886182205952</title>
<path fill="none" stroke="black" d="M553.19,-128.5C561.28,-128.5 570.69,-128.5 580.62,-128.5"/>
<polygon fill="black" stroke="black" points="580.7,-132 590.7,-128.5 580.7,-125 580.7,-132"/>
</g>
<!-- 132886182203936 -->
<g id="node11" class="node">
<title>132886182203936</title>
<polygon fill="none" stroke="black" points="2,-76.5 2,-112.5 164,-112.5 164,-76.5 2,-76.5"/>
<text text-anchor="middle" x="42" y="-90.8" font-family="Times,serif" font-size="14.00">data 0.2085</text>
<polyline fill="none" stroke="black" points="82,-76.5 82,-112.5 "/>
<text text-anchor="middle" x="123" y="-90.8" font-family="Times,serif" font-size="14.00">grad 0.0000</text>
</g>
<!-- 132886182203936&#45;&gt;132886182205568* -->
<g id="edge21" class="edge">
<title>132886182203936&#45;&gt;132886182205568*</title>
<path fill="none" stroke="black" d="M164,-94.5C173.76,-94.5 183.32,-94.5 191.95,-94.5"/>
<polygon fill="black" stroke="black" points="191.97,-98 201.97,-94.5 191.97,-91 191.97,-98"/>
</g>
<!-- 132886182203984 -->
<g id="node12" class="node">
<title>132886182203984</title>
<polygon fill="none" stroke="black" points="296.5,-0.5 296.5,-36.5 458.5,-36.5 458.5,-0.5 296.5,-0.5"/>
<text text-anchor="middle" x="336.5" y="-14.8" font-family="Times,serif" font-size="14.00">data 0.0497</text>
<polyline fill="none" stroke="black" points="376.5,-0.5 376.5,-36.5 "/>
<text text-anchor="middle" x="417.5" y="-14.8" font-family="Times,serif" font-size="14.00">grad 0.0000</text>
</g>
<!-- 132886182203984&#45;&gt;132886182205760+ -->
<g id="edge35" class="edge">
<title>132886182203984&#45;&gt;132886182205760+</title>
<path fill="none" stroke="black" d="M435.57,-36.63C444.79,-39.78 454.19,-43.13 463,-46.5 473.2,-50.4 484.17,-55.03 494,-59.35"/>
<polygon fill="black" stroke="black" points="492.83,-62.65 503.39,-63.52 495.67,-56.26 492.83,-62.65"/>
</g>
<!-- 132886182204032 -->
<g id="node13" class="node">
<title>132886182204032</title>
<polygon fill="none" stroke="black" points="294,-110.5 294,-146.5 461,-146.5 461,-110.5 294,-110.5"/>
<text text-anchor="middle" x="336.5" y="-124.8" font-family="Times,serif" font-size="14.00">data &#45;0.8283</text>
<polyline fill="none" stroke="black" points="379,-110.5 379,-146.5 "/>
<text text-anchor="middle" x="420" y="-124.8" font-family="Times,serif" font-size="14.00">grad 0.0000</text>
</g>
<!-- 132886182204032&#45;&gt;132886182205952* -->
<g id="edge29" class="edge">
<title>132886182204032&#45;&gt;132886182205952*</title>
<path fill="none" stroke="black" d="M461.17,-128.5C470.75,-128.5 480.12,-128.5 488.59,-128.5"/>
<polygon fill="black" stroke="black" points="488.8,-132 498.8,-128.5 488.8,-125 488.8,-132"/>
</g>
<!-- 132886182206144 -->
<g id="node14" class="node">
<title>132886182206144</title>
<polygon fill="none" stroke="black" points="886,-110.5 886,-146.5 1053,-146.5 1053,-110.5 886,-110.5"/>
<text text-anchor="middle" x="928.5" y="-124.8" font-family="Times,serif" font-size="14.00">data &#45;2.3494</text>
<polyline fill="none" stroke="black" points="971,-110.5 971,-146.5 "/>
<text text-anchor="middle" x="1012" y="-124.8" font-family="Times,serif" font-size="14.00">grad 0.0000</text>
</g>
<!-- 132886182206192ReLU -->
<g id="node17" class="node">
<title>132886182206192ReLU</title>
<ellipse fill="none" stroke="black" cx="1121.5" cy="-128.5" rx="32.49" ry="18"/>
<text text-anchor="middle" x="1121.5" y="-124.8" font-family="Times,serif" font-size="14.00">ReLU</text>
</g>
<!-- 132886182206144&#45;&gt;132886182206192ReLU -->
<g id="edge28" class="edge">
<title>132886182206144&#45;&gt;132886182206192ReLU</title>
<path fill="none" stroke="black" d="M1053.4,-128.5C1062.16,-128.5 1070.78,-128.5 1078.76,-128.5"/>
<polygon fill="black" stroke="black" points="1078.86,-132 1088.86,-128.5 1078.86,-125 1078.86,-132"/>
</g>
<!-- 132886182206144+&#45;&gt;132886182206144 -->
<g id="edge4" class="edge">
<title>132886182206144+&#45;&gt;132886182206144</title>
<path fill="none" stroke="black" d="M850.17,-128.5C857.75,-128.5 866.5,-128.5 875.74,-128.5"/>
<polygon fill="black" stroke="black" points="875.92,-132 885.92,-128.5 875.92,-125 875.92,-132"/>
</g>
<!-- 132886182206192 -->
<g id="node16" class="node">
<title>132886182206192</title>
<polygon fill="none" stroke="black" points="1192.49,-110.5 1192.49,-146.5 1354.49,-146.5 1354.49,-110.5 1192.49,-110.5"/>
<text text-anchor="middle" x="1232.49" y="-124.8" font-family="Times,serif" font-size="14.00">data 0.0000</text>
<polyline fill="none" stroke="black" points="1272.49,-110.5 1272.49,-146.5 "/>
<text text-anchor="middle" x="1313.49" y="-124.8" font-family="Times,serif" font-size="14.00">grad 0.6270</text>
</g>
<!-- 132886182206864* -->
<g id="node29" class="node">
<title>132886182206864*</title>
<ellipse fill="none" stroke="black" cx="1419.99" cy="-128.5" rx="27" ry="18"/>
<text text-anchor="middle" x="1419.99" y="-124.8" font-family="Times,serif" font-size="14.00">*</text>
</g>
<!-- 132886182206192&#45;&gt;132886182206864* -->
<g id="edge31" class="edge">
<title>132886182206192&#45;&gt;132886182206864*</title>
<path fill="none" stroke="black" d="M1354.77,-128.5C1364.56,-128.5 1374.16,-128.5 1382.82,-128.5"/>
<polygon fill="black" stroke="black" points="1382.87,-132 1392.87,-128.5 1382.87,-125 1382.87,-132"/>
</g>
<!-- 132886182206192ReLU&#45;&gt;132886182206192 -->
<g id="edge5" class="edge">
<title>132886182206192ReLU&#45;&gt;132886182206192</title>
<path fill="none" stroke="black" d="M1154.31,-128.5C1162.76,-128.5 1172.32,-128.5 1182.25,-128.5"/>
<polygon fill="black" stroke="black" points="1182.27,-132 1192.27,-128.5 1182.27,-125 1182.27,-132"/>
</g>
<!-- 132886182204224 -->
<g id="node18" class="node">
<title>132886182204224</title>
<polygon fill="none" stroke="black" points="1189.99,-275.5 1189.99,-311.5 1356.99,-311.5 1356.99,-275.5 1189.99,-275.5"/>
<text text-anchor="middle" x="1232.49" y="-289.8" font-family="Times,serif" font-size="14.00">data &#45;0.9869</text>
<polyline fill="none" stroke="black" points="1274.99,-275.5 1274.99,-311.5 "/>
<text text-anchor="middle" x="1315.99" y="-289.8" font-family="Times,serif" font-size="14.00">grad 0.7307</text>
</g>
<!-- 132886182206480* -->
<g id="node23" class="node">
<title>132886182206480*</title>
<ellipse fill="none" stroke="black" cx="1419.99" cy="-238.5" rx="27" ry="18"/>
<text text-anchor="middle" x="1419.99" y="-234.8" font-family="Times,serif" font-size="14.00">*</text>
</g>
<!-- 132886182204224&#45;&gt;132886182206480* -->
<g id="edge23" class="edge">
<title>132886182204224&#45;&gt;132886182206480*</title>
<path fill="none" stroke="black" d="M1332.47,-275.4C1340.75,-272.56 1349.13,-269.55 1356.99,-266.5 1367.42,-262.45 1378.62,-257.57 1388.6,-253.02"/>
<polygon fill="black" stroke="black" points="1390.11,-256.17 1397.72,-248.8 1387.17,-249.82 1390.11,-256.17"/>
</g>
<!-- 132886182204272 -->
<g id="node19" class="node">
<title>132886182204272</title>
<polygon fill="none" stroke="black" points="1482.99,-165.5 1482.99,-201.5 1649.99,-201.5 1649.99,-165.5 1482.99,-165.5"/>
<text text-anchor="middle" x="1525.49" y="-179.8" font-family="Times,serif" font-size="14.00">data &#45;0.0322</text>
<polyline fill="none" stroke="black" points="1567.99,-165.5 1567.99,-201.5 "/>
<text text-anchor="middle" x="1608.99" y="-179.8" font-family="Times,serif" font-size="14.00">grad 1.0000</text>
</g>
<!-- 132886182206672+ -->
<g id="node25" class="node">
<title>132886182206672+</title>
<ellipse fill="none" stroke="black" cx="1766.99" cy="-183.5" rx="27" ry="18"/>
<text text-anchor="middle" x="1766.99" y="-179.8" font-family="Times,serif" font-size="14.00">+</text>
</g>
<!-- 132886182204272&#45;&gt;132886182206672+ -->
<g id="edge38" class="edge">
<title>132886182204272&#45;&gt;132886182206672+</title>
<path fill="none" stroke="black" d="M1650.24,-183.5C1677.97,-183.5 1707.48,-183.5 1729.76,-183.5"/>
<polygon fill="black" stroke="black" points="1729.76,-187 1739.76,-183.5 1729.76,-180 1729.76,-187"/>
</g>
<!-- 132886182204320 -->
<g id="node20" class="node">
<title>132886182204320</title>
<polygon fill="none" stroke="black" points="1192.49,-55.5 1192.49,-91.5 1354.49,-91.5 1354.49,-55.5 1192.49,-55.5"/>
<text text-anchor="middle" x="1232.49" y="-69.8" font-family="Times,serif" font-size="14.00">data 0.6270</text>
<polyline fill="none" stroke="black" points="1272.49,-55.5 1272.49,-91.5 "/>
<text text-anchor="middle" x="1313.49" y="-69.8" font-family="Times,serif" font-size="14.00">grad 0.0000</text>
</g>
<!-- 132886182204320&#45;&gt;132886182206864* -->
<g id="edge33" class="edge">
<title>132886182204320&#45;&gt;132886182206864*</title>
<path fill="none" stroke="black" d="M1329.75,-91.54C1338.9,-94.73 1348.25,-98.12 1356.99,-101.5 1367.18,-105.44 1378.14,-110.08 1387.98,-114.39"/>
<polygon fill="black" stroke="black" points="1386.81,-117.7 1397.37,-118.55 1389.65,-111.3 1386.81,-117.7"/>
</g>
<!-- 132886315299856 -->
<g id="node21" class="node">
<title>132886315299856</title>
<polygon fill="none" stroke="black" points="0,-213.5 0,-249.5 166,-249.5 166,-213.5 0,-213.5"/>
<text text-anchor="middle" x="40" y="-227.8" font-family="Times,serif" font-size="14.00">data 2.0000</text>
<polyline fill="none" stroke="black" points="80,-213.5 80,-249.5 "/>
<text text-anchor="middle" x="123" y="-227.8" font-family="Times,serif" font-size="14.00">grad &#45;0.3382</text>
</g>
<!-- 132886315299856&#45;&gt;132886182205568* -->
<g id="edge30" class="edge">
<title>132886315299856&#45;&gt;132886182205568*</title>
<path fill="none" stroke="black" d="M103.12,-213.31C129.56,-188.16 177.18,-142.85 205.36,-116.04"/>
<polygon fill="black" stroke="black" points="207.93,-118.43 212.76,-109 203.1,-113.36 207.93,-118.43"/>
</g>
<!-- 132886315299856&#45;&gt;132886182204656* -->
<g id="edge24" class="edge">
<title>132886315299856&#45;&gt;132886182204656*</title>
<path fill="none" stroke="black" d="M111.09,-249.56C136.74,-266.66 175.06,-292.2 200.76,-309.34"/>
<polygon fill="black" stroke="black" points="199.02,-312.39 209.29,-315.02 202.91,-306.56 199.02,-312.39"/>
</g>
<!-- 132886182206480 -->
<g id="node22" class="node">
<title>132886182206480</title>
<polygon fill="none" stroke="black" points="1482.99,-220.5 1482.99,-256.5 1649.99,-256.5 1649.99,-220.5 1482.99,-220.5"/>
<text text-anchor="middle" x="1525.49" y="-234.8" font-family="Times,serif" font-size="14.00">data &#45;0.7212</text>
<polyline fill="none" stroke="black" points="1567.99,-220.5 1567.99,-256.5 "/>
<text text-anchor="middle" x="1608.99" y="-234.8" font-family="Times,serif" font-size="14.00">grad 1.0000</text>
</g>
<!-- 132886182206480&#45;&gt;132886182206672+ -->
<g id="edge19" class="edge">
<title>132886182206480&#45;&gt;132886182206672+</title>
<path fill="none" stroke="black" d="M1632.49,-220.49C1665.58,-211.32 1704.45,-200.55 1731.69,-193"/>
<polygon fill="black" stroke="black" points="1732.82,-196.32 1741.52,-190.28 1730.95,-189.58 1732.82,-196.32"/>
</g>
<!-- 132886182206480*&#45;&gt;132886182206480 -->
<g id="edge6" class="edge">
<title>132886182206480*&#45;&gt;132886182206480</title>
<path fill="none" stroke="black" d="M1447.16,-238.5C1454.75,-238.5 1463.5,-238.5 1472.73,-238.5"/>
<polygon fill="black" stroke="black" points="1472.91,-242 1482.91,-238.5 1472.91,-235 1472.91,-242"/>
</g>
<!-- 132886182206672 -->
<g id="node24" class="node">
<title>132886182206672</title>
<polygon fill="none" stroke="black" points="1883.99,-163.5 1883.99,-199.5 2050.99,-199.5 2050.99,-163.5 1883.99,-163.5"/>
<text text-anchor="middle" x="1926.49" y="-177.8" font-family="Times,serif" font-size="14.00">data &#45;0.7534</text>
<polyline fill="none" stroke="black" points="1968.99,-163.5 1968.99,-199.5 "/>
<text text-anchor="middle" x="2009.99" y="-177.8" font-family="Times,serif" font-size="14.00">grad 1.0000</text>
</g>
<!-- 132886182207056+ -->
<g id="node33" class="node">
<title>132886182207056+</title>
<ellipse fill="none" stroke="black" cx="2113.99" cy="-155.5" rx="27" ry="18"/>
<text text-anchor="middle" x="2113.99" y="-151.8" font-family="Times,serif" font-size="14.00">+</text>
</g>
<!-- 132886182206672&#45;&gt;132886182207056+ -->
<g id="edge39" class="edge">
<title>132886182206672&#45;&gt;132886182207056+</title>
<path fill="none" stroke="black" d="M2051.29,-166.6C2060.61,-164.93 2069.68,-163.29 2077.87,-161.82"/>
<polygon fill="black" stroke="black" points="2078.52,-165.26 2087.74,-160.04 2077.28,-158.37 2078.52,-165.26"/>
</g>
<!-- 132886182206672+&#45;&gt;132886182206672 -->
<g id="edge7" class="edge">
<title>132886182206672+&#45;&gt;132886182206672</title>
<path fill="none" stroke="black" d="M1794.35,-183.23C1814.82,-183.03 1844.52,-182.73 1873.5,-182.44"/>
<polygon fill="black" stroke="black" points="1873.74,-185.93 1883.7,-182.33 1873.66,-178.94 1873.74,-185.93"/>
</g>
<!-- 132886182204656 -->
<g id="node26" class="node">
<title>132886182204656</title>
<polygon fill="none" stroke="black" points="294.5,-330.5 294.5,-366.5 460.5,-366.5 460.5,-330.5 294.5,-330.5"/>
<text text-anchor="middle" x="334.5" y="-344.8" font-family="Times,serif" font-size="14.00">data 0.6853</text>
<polyline fill="none" stroke="black" points="374.5,-330.5 374.5,-366.5 "/>
<text text-anchor="middle" x="417.5" y="-344.8" font-family="Times,serif" font-size="14.00">grad &#45;0.9869</text>
</g>
<!-- 132886182204656&#45;&gt;132886182204848+ -->
<g id="edge25" class="edge">
<title>132886182204656&#45;&gt;132886182204848+</title>
<path fill="none" stroke="black" d="M437.9,-330.47C446.38,-327.62 454.95,-324.59 463,-321.5 473.44,-317.49 484.65,-312.61 494.62,-308.06"/>
<polygon fill="black" stroke="black" points="496.14,-311.21 503.74,-303.83 493.19,-304.86 496.14,-311.21"/>
</g>
<!-- 132886182204656*&#45;&gt;132886182204656 -->
<g id="edge8" class="edge">
<title>132886182204656*&#45;&gt;132886182204656</title>
<path fill="none" stroke="black" d="M255.52,-331.16C263.91,-332.36 273.77,-333.77 284.19,-335.27"/>
<polygon fill="black" stroke="black" points="283.92,-338.77 294.32,-336.72 284.91,-331.84 283.92,-338.77"/>
</g>
<!-- 132886182206864 -->
<g id="node28" class="node">
<title>132886182206864</title>
<polygon fill="none" stroke="black" points="1685.99,-110.5 1685.99,-146.5 1847.99,-146.5 1847.99,-110.5 1685.99,-110.5"/>
<text text-anchor="middle" x="1725.99" y="-124.8" font-family="Times,serif" font-size="14.00">data 0.0000</text>
<polyline fill="none" stroke="black" points="1765.99,-110.5 1765.99,-146.5 "/>
<text text-anchor="middle" x="1806.99" y="-124.8" font-family="Times,serif" font-size="14.00">grad 1.0000</text>
</g>
<!-- 132886182206864&#45;&gt;132886182207056+ -->
<g id="edge26" class="edge">
<title>132886182206864&#45;&gt;132886182207056+</title>
<path fill="none" stroke="black" d="M1848.01,-134.76C1920.23,-140.41 2023.16,-148.47 2077.01,-152.68"/>
<polygon fill="black" stroke="black" points="2076.86,-156.18 2087.1,-153.47 2077.4,-149.2 2076.86,-156.18"/>
</g>
<!-- 132886182206864*&#45;&gt;132886182206864 -->
<g id="edge9" class="edge">
<title>132886182206864*&#45;&gt;132886182206864</title>
<path fill="none" stroke="black" d="M1447.21,-128.5C1495.22,-128.5 1599.31,-128.5 1675.54,-128.5"/>
<polygon fill="black" stroke="black" points="1675.64,-132 1685.64,-128.5 1675.64,-125 1675.64,-132"/>
</g>
<!-- 132886182204848 -->
<g id="node30" class="node">
<title>132886182204848</title>
<polygon fill="none" stroke="black" points="591.5,-275.5 591.5,-311.5 757.5,-311.5 757.5,-275.5 591.5,-275.5"/>
<text text-anchor="middle" x="631.5" y="-289.8" font-family="Times,serif" font-size="14.00">data 0.9474</text>
<polyline fill="none" stroke="black" points="671.5,-275.5 671.5,-311.5 "/>
<text text-anchor="middle" x="714.5" y="-289.8" font-family="Times,serif" font-size="14.00">grad &#45;0.9869</text>
</g>
<!-- 132886182205232+ -->
<g id="node37" class="node">
<title>132886182205232+</title>
<ellipse fill="none" stroke="black" cx="823" cy="-238.5" rx="27" ry="18"/>
<text text-anchor="middle" x="823" y="-234.8" font-family="Times,serif" font-size="14.00">+</text>
</g>
<!-- 132886182204848&#45;&gt;132886182205232+ -->
<g id="edge16" class="edge">
<title>132886182204848&#45;&gt;132886182205232+</title>
<path fill="none" stroke="black" d="M734.9,-275.47C743.38,-272.62 751.95,-269.59 760,-266.5 770.44,-262.49 781.65,-257.61 791.62,-253.06"/>
<polygon fill="black" stroke="black" points="793.14,-256.21 800.74,-248.83 790.19,-249.86 793.14,-256.21"/>
</g>
<!-- 132886182204848+&#45;&gt;132886182204848 -->
<g id="edge10" class="edge">
<title>132886182204848+&#45;&gt;132886182204848</title>
<path fill="none" stroke="black" d="M553.19,-293.5C561.4,-293.5 570.98,-293.5 581.08,-293.5"/>
<polygon fill="black" stroke="black" points="581.32,-297 591.32,-293.5 581.32,-290 581.32,-297"/>
</g>
<!-- 132886182207056 -->
<g id="node32" class="node">
<title>132886182207056</title>
<polygon fill="none" stroke="black" points="2176.99,-137.5 2176.99,-173.5 2343.99,-173.5 2343.99,-137.5 2176.99,-137.5"/>
<text text-anchor="middle" x="2219.49" y="-151.8" font-family="Times,serif" font-size="14.00">data &#45;0.7534</text>
<polyline fill="none" stroke="black" points="2261.99,-137.5 2261.99,-173.5 "/>
<text text-anchor="middle" x="2302.99" y="-151.8" font-family="Times,serif" font-size="14.00">grad 1.0000</text>
</g>
<!-- 132886182207056+&#45;&gt;132886182207056 -->
<g id="edge11" class="edge">
<title>132886182207056+&#45;&gt;132886182207056</title>
<path fill="none" stroke="black" d="M2141.16,-155.5C2148.75,-155.5 2157.5,-155.5 2166.73,-155.5"/>
<polygon fill="black" stroke="black" points="2166.91,-159 2176.91,-155.5 2166.91,-152 2166.91,-159"/>
</g>
<!-- 132886182205040 -->
<g id="node34" class="node">
<title>132886182205040</title>
<polygon fill="none" stroke="black" points="589,-220.5 589,-256.5 760,-256.5 760,-220.5 589,-220.5"/>
<text text-anchor="middle" x="631.5" y="-234.8" font-family="Times,serif" font-size="14.00">data &#45;0.2167</text>
<polyline fill="none" stroke="black" points="674,-220.5 674,-256.5 "/>
<text text-anchor="middle" x="717" y="-234.8" font-family="Times,serif" font-size="14.00">grad &#45;0.9869</text>
</g>
<!-- 132886182205040&#45;&gt;132886182205232+ -->
<g id="edge32" class="edge">
<title>132886182205040&#45;&gt;132886182205232+</title>
<path fill="none" stroke="black" d="M760.3,-238.5C769.17,-238.5 777.81,-238.5 785.68,-238.5"/>
<polygon fill="black" stroke="black" points="785.89,-242 795.89,-238.5 785.89,-235 785.89,-242"/>
</g>
<!-- 132886182205040*&#45;&gt;132886182205040 -->
<g id="edge12" class="edge">
<title>132886182205040*&#45;&gt;132886182205040</title>
<path fill="none" stroke="black" d="M553.19,-238.5C560.75,-238.5 569.46,-238.5 578.67,-238.5"/>
<polygon fill="black" stroke="black" points="578.84,-242 588.84,-238.5 578.84,-235 578.84,-242"/>
</g>
<!-- 132886182205232 -->
<g id="node36" class="node">
<title>132886182205232</title>
<polygon fill="none" stroke="black" points="886.5,-220.5 886.5,-256.5 1052.5,-256.5 1052.5,-220.5 886.5,-220.5"/>
<text text-anchor="middle" x="926.5" y="-234.8" font-family="Times,serif" font-size="14.00">data 0.7307</text>
<polyline fill="none" stroke="black" points="966.5,-220.5 966.5,-256.5 "/>
<text text-anchor="middle" x="1009.5" y="-234.8" font-family="Times,serif" font-size="14.00">grad &#45;0.9869</text>
</g>
<!-- 132886182205280ReLU -->
<g id="node39" class="node">
<title>132886182205280ReLU</title>
<ellipse fill="none" stroke="black" cx="1121.5" cy="-238.5" rx="32.49" ry="18"/>
<text text-anchor="middle" x="1121.5" y="-234.8" font-family="Times,serif" font-size="14.00">ReLU</text>
</g>
<!-- 132886182205232&#45;&gt;132886182205280ReLU -->
<g id="edge18" class="edge">
<title>132886182205232&#45;&gt;132886182205280ReLU</title>
<path fill="none" stroke="black" d="M1052.52,-238.5C1061.56,-238.5 1070.47,-238.5 1078.7,-238.5"/>
<polygon fill="black" stroke="black" points="1078.73,-242 1088.73,-238.5 1078.73,-235 1078.73,-242"/>
</g>
<!-- 132886182205232+&#45;&gt;132886182205232 -->
<g id="edge13" class="edge">
<title>132886182205232+&#45;&gt;132886182205232</title>
<path fill="none" stroke="black" d="M850.17,-238.5C857.81,-238.5 866.64,-238.5 875.96,-238.5"/>
<polygon fill="black" stroke="black" points="876.22,-242 886.22,-238.5 876.22,-235 876.22,-242"/>
</g>
<!-- 132886182205280 -->
<g id="node38" class="node">
<title>132886182205280</title>
<polygon fill="none" stroke="black" points="1190.49,-220.5 1190.49,-256.5 1356.49,-256.5 1356.49,-220.5 1190.49,-220.5"/>
<text text-anchor="middle" x="1230.49" y="-234.8" font-family="Times,serif" font-size="14.00">data 0.7307</text>
<polyline fill="none" stroke="black" points="1270.49,-220.5 1270.49,-256.5 "/>
<text text-anchor="middle" x="1313.49" y="-234.8" font-family="Times,serif" font-size="14.00">grad &#45;0.9869</text>
</g>
<!-- 132886182205280&#45;&gt;132886182206480* -->
<g id="edge20" class="edge">
<title>132886182205280&#45;&gt;132886182206480*</title>
<path fill="none" stroke="black" d="M1356.87,-238.5C1365.95,-238.5 1374.81,-238.5 1382.87,-238.5"/>
<polygon fill="black" stroke="black" points="1382.94,-242 1392.94,-238.5 1382.94,-235 1382.94,-242"/>
</g>
<!-- 132886182205280ReLU&#45;&gt;132886182205280 -->
<g id="edge14" class="edge">
<title>132886182205280ReLU&#45;&gt;132886182205280</title>
<path fill="none" stroke="black" d="M1154.31,-238.5C1162.2,-238.5 1171.06,-238.5 1180.29,-238.5"/>
<polygon fill="black" stroke="black" points="1180.43,-242 1190.43,-238.5 1180.43,-235 1180.43,-242"/>
</g>
</g>
</svg>
