<?xml version="1.0" encoding="UTF-8" standalone="no"?>
<!DOCTYPE svg PUBLIC "-//W3C//DTD SVG 1.1//EN"
 "http://www.w3.org/Graphics/SVG/1.1/DTD/svg11.dtd">
<!-- Generated by graphviz version 2.50.0 (0)
 -->
<!-- Pages: 1 -->
<svg width="2361pt" height="375pt"
 viewBox="0.00 0.00 2360.99 375.00" xmlns="http://www.w3.org/2000/svg" xmlns:xlink="http://www.w3.org/1999/xlink">
<g id="graph0" class="graph" transform="scale(1 1) rotate(0) translate(4 371)">
<polygon fill="white" stroke="transparent" points="-4,4 -4,-371 2356.99,-371 2356.99,4 -4,4"/>
<!-- 135725684987936 -->
<g id="node1" class="node">
<title>135725684987936</title>
<polygon fill="none" stroke="black" points="2185.99,-111.5 2185.99,-147.5 2352.99,-147.5 2352.99,-111.5 2185.99,-111.5"/>
<text text-anchor="middle" x="2228.49" y="-125.8" font-family="Times,serif" font-size="14.00">data &#45;2.6196</text>
<polyline fill="none" stroke="black" points="2270.99,-111.5 2270.99,-147.5 "/>
<text text-anchor="middle" x="2311.99" y="-125.8" font-family="Times,serif" font-size="14.00">grad 1.0000</text>
</g>
<!-- 135725684987936+ -->
<g id="node2" class="node">
<title>135725684987936+</title>
<ellipse fill="none" stroke="black" cx="2122.99" cy="-129.5" rx="27" ry="18"/>
<text text-anchor="middle" x="2122.99" y="-125.8" font-family="Times,serif" font-size="14.00">+</text>
</g>
<!-- 135725684987936+&#45;&gt;135725684987936 -->
<g id="edge1" class="edge">
<title>135725684987936+&#45;&gt;135725684987936</title>
<path fill="none" stroke="black" d="M2150.16,-129.5C2157.75,-129.5 2166.5,-129.5 2175.73,-129.5"/>
<polygon fill="black" stroke="black" points="2175.91,-133 2185.91,-129.5 2175.91,-126 2175.91,-133"/>
</g>
<!-- 135725684985920 -->
<g id="node3" class="node">
<title>135725684985920</title>
<polygon fill="none" stroke="black" points="596.5,-275.5 596.5,-311.5 762.5,-311.5 762.5,-275.5 596.5,-275.5"/>
<text text-anchor="middle" x="636.5" y="-289.8" font-family="Times,serif" font-size="14.00">data 1.4150</text>
<polyline fill="none" stroke="black" points="676.5,-275.5 676.5,-311.5 "/>
<text text-anchor="middle" x="719.5" y="-289.8" font-family="Times,serif" font-size="14.00">grad &#45;0.6867</text>
</g>
<!-- 135725684986112+ -->
<g id="node6" class="node">
<title>135725684986112+</title>
<ellipse fill="none" stroke="black" cx="828" cy="-249.5" rx="27" ry="18"/>
<text text-anchor="middle" x="828" y="-245.8" font-family="Times,serif" font-size="14.00">+</text>
</g>
<!-- 135725684985920&#45;&gt;135725684986112+ -->
<g id="edge29" class="edge">
<title>135725684985920&#45;&gt;135725684986112+</title>
<path fill="none" stroke="black" d="M740.51,-275.48C758.53,-270.06 777.66,-264.32 793.33,-259.61"/>
<polygon fill="black" stroke="black" points="794.51,-262.91 803.08,-256.68 792.5,-256.21 794.51,-262.91"/>
</g>
<!-- 135725684985920* -->
<g id="node4" class="node">
<title>135725684985920*</title>
<ellipse fill="none" stroke="black" cx="531" cy="-293.5" rx="27" ry="18"/>
<text text-anchor="middle" x="531" y="-289.8" font-family="Times,serif" font-size="14.00">*</text>
</g>
<!-- 135725684985920*&#45;&gt;135725684985920 -->
<g id="edge2" class="edge">
<title>135725684985920*&#45;&gt;135725684985920</title>
<path fill="none" stroke="black" d="M558.19,-293.5C566.4,-293.5 575.98,-293.5 586.08,-293.5"/>
<polygon fill="black" stroke="black" points="586.32,-297 596.32,-293.5 586.32,-290 586.32,-297"/>
</g>
<!-- 135725684986112 -->
<g id="node5" class="node">
<title>135725684986112</title>
<polygon fill="none" stroke="black" points="891,-231.5 891,-267.5 1057,-267.5 1057,-231.5 891,-231.5"/>
<text text-anchor="middle" x="931" y="-245.8" font-family="Times,serif" font-size="14.00">data 2.0544</text>
<polyline fill="none" stroke="black" points="971,-231.5 971,-267.5 "/>
<text text-anchor="middle" x="1014" y="-245.8" font-family="Times,serif" font-size="14.00">grad &#45;0.6867</text>
</g>
<!-- 135725684986160ReLU -->
<g id="node9" class="node">
<title>135725684986160ReLU</title>
<ellipse fill="none" stroke="black" cx="1125.5" cy="-249.5" rx="32.49" ry="18"/>
<text text-anchor="middle" x="1125.5" y="-245.8" font-family="Times,serif" font-size="14.00">ReLU</text>
</g>
<!-- 135725684986112&#45;&gt;135725684986160ReLU -->
<g id="edge18" class="edge">
<title>135725684986112&#45;&gt;135725684986160ReLU</title>
<path fill="none" stroke="black" d="M1057.18,-249.5C1065.96,-249.5 1074.59,-249.5 1082.6,-249.5"/>
<polygon fill="black" stroke="black" points="1082.73,-253 1092.73,-249.5 1082.73,-246 1082.73,-253"/>
</g>
<!-- 135725684986112+&#45;&gt;135725684986112 -->
<g id="edge3" class="edge">
<title>135725684986112+&#45;&gt;135725684986112</title>
<path fill="none" stroke="black" d="M855.08,-249.5C862.64,-249.5 871.35,-249.5 880.56,-249.5"/>
<polygon fill="black" stroke="black" points="880.7,-253 890.7,-249.5 880.7,-246 880.7,-253"/>
</g>
<!-- 135725714284832 -->
<g id="node7" class="node">
<title>135725714284832</title>
<polygon fill="none" stroke="black" points="4.5,-137.5 4.5,-173.5 166.5,-173.5 166.5,-137.5 4.5,-137.5"/>
<text text-anchor="middle" x="44.5" y="-151.8" font-family="Times,serif" font-size="14.00">data 2.0000</text>
<polyline fill="none" stroke="black" points="84.5,-137.5 84.5,-173.5 "/>
<text text-anchor="middle" x="125.5" y="-151.8" font-family="Times,serif" font-size="14.00">grad 0.4124</text>
</g>
<!-- 135725684986448* -->
<g id="node11" class="node">
<title>135725684986448*</title>
<ellipse fill="none" stroke="black" cx="234" cy="-73.5" rx="27" ry="18"/>
<text text-anchor="middle" x="234" y="-69.8" font-family="Times,serif" font-size="14.00">*</text>
</g>
<!-- 135725714284832&#45;&gt;135725684986448* -->
<g id="edge39" class="edge">
<title>135725714284832&#45;&gt;135725684986448*</title>
<path fill="none" stroke="black" d="M119.01,-137.3C144.43,-123.08 179.43,-103.48 203.93,-89.77"/>
<polygon fill="black" stroke="black" points="205.74,-92.77 212.75,-84.83 202.32,-86.66 205.74,-92.77"/>
</g>
<!-- 135725684985536* -->
<g id="node35" class="node">
<title>135725684985536*</title>
<ellipse fill="none" stroke="black" cx="234" cy="-224.5" rx="27" ry="18"/>
<text text-anchor="middle" x="234" y="-220.8" font-family="Times,serif" font-size="14.00">*</text>
</g>
<!-- 135725714284832&#45;&gt;135725684985536* -->
<g id="edge31" class="edge">
<title>135725714284832&#45;&gt;135725684985536*</title>
<path fill="none" stroke="black" d="M124.99,-173.63C149.17,-185.02 179.94,-199.51 202.44,-210.11"/>
<polygon fill="black" stroke="black" points="201,-213.3 211.54,-214.39 203.98,-206.96 201,-213.3"/>
</g>
<!-- 135725684986160 -->
<g id="node8" class="node">
<title>135725684986160</title>
<polygon fill="none" stroke="black" points="1194.49,-231.5 1194.49,-267.5 1360.49,-267.5 1360.49,-231.5 1194.49,-231.5"/>
<text text-anchor="middle" x="1234.49" y="-245.8" font-family="Times,serif" font-size="14.00">data 2.0544</text>
<polyline fill="none" stroke="black" points="1274.49,-231.5 1274.49,-267.5 "/>
<text text-anchor="middle" x="1317.49" y="-245.8" font-family="Times,serif" font-size="14.00">grad &#45;0.6867</text>
</g>
<!-- 135725684987360* -->
<g id="node31" class="node">
<title>135725684987360*</title>
<ellipse fill="none" stroke="black" cx="1423.99" cy="-208.5" rx="27" ry="18"/>
<text text-anchor="middle" x="1423.99" y="-204.8" font-family="Times,serif" font-size="14.00">*</text>
</g>
<!-- 135725684986160&#45;&gt;135725684987360* -->
<g id="edge17" class="edge">
<title>135725684986160&#45;&gt;135725684987360*</title>
<path fill="none" stroke="black" d="M1342.29,-231.4C1358.48,-226.81 1375.23,-222.05 1389.26,-218.07"/>
<polygon fill="black" stroke="black" points="1390.27,-221.42 1398.94,-215.33 1388.36,-214.69 1390.27,-221.42"/>
</g>
<!-- 135725684986160ReLU&#45;&gt;135725684986160 -->
<g id="edge4" class="edge">
<title>135725684986160ReLU&#45;&gt;135725684986160</title>
<path fill="none" stroke="black" d="M1158.31,-249.5C1166.2,-249.5 1175.06,-249.5 1184.29,-249.5"/>
<polygon fill="black" stroke="black" points="1184.43,-253 1194.43,-249.5 1184.43,-246 1184.43,-253"/>
</g>
<!-- 135725684986448 -->
<g id="node10" class="node">
<title>135725684986448</title>
<polygon fill="none" stroke="black" points="297,-0.5 297,-36.5 468,-36.5 468,-0.5 297,-0.5"/>
<text text-anchor="middle" x="339.5" y="-14.8" font-family="Times,serif" font-size="14.00">data &#45;0.7700</text>
<polyline fill="none" stroke="black" points="382,-0.5 382,-36.5 "/>
<text text-anchor="middle" x="425" y="-14.8" font-family="Times,serif" font-size="14.00">grad &#45;0.8113</text>
</g>
<!-- 135725684986640+ -->
<g id="node15" class="node">
<title>135725684986640+</title>
<ellipse fill="none" stroke="black" cx="531" cy="-73.5" rx="27" ry="18"/>
<text text-anchor="middle" x="531" y="-69.8" font-family="Times,serif" font-size="14.00">+</text>
</g>
<!-- 135725684986448&#45;&gt;135725684986640+ -->
<g id="edge34" class="edge">
<title>135725684986448&#45;&gt;135725684986640+</title>
<path fill="none" stroke="black" d="M442.9,-36.53C451.38,-39.38 459.95,-42.41 468,-45.5 478.44,-49.51 489.65,-54.39 499.62,-58.94"/>
<polygon fill="black" stroke="black" points="498.19,-62.14 508.74,-63.17 501.14,-55.79 498.19,-62.14"/>
</g>
<!-- 135725684986448*&#45;&gt;135725684986448 -->
<g id="edge5" class="edge">
<title>135725684986448*&#45;&gt;135725684986448</title>
<path fill="none" stroke="black" d="M256.26,-63.17C268.11,-57.59 283.22,-50.79 297,-45.5 302.03,-43.57 307.27,-41.66 312.56,-39.8"/>
<polygon fill="black" stroke="black" points="313.78,-43.08 322.1,-36.53 311.51,-36.46 313.78,-43.08"/>
</g>
<!-- 135725684984528 -->
<g id="node12" class="node">
<title>135725684984528</title>
<polygon fill="none" stroke="black" points="299.5,-275.5 299.5,-311.5 465.5,-311.5 465.5,-275.5 299.5,-275.5"/>
<text text-anchor="middle" x="339.5" y="-289.8" font-family="Times,serif" font-size="14.00">data 3.4000</text>
<polyline fill="none" stroke="black" points="379.5,-275.5 379.5,-311.5 "/>
<text text-anchor="middle" x="422.5" y="-289.8" font-family="Times,serif" font-size="14.00">grad &#45;0.8043</text>
</g>
<!-- 135725684984528&#45;&gt;135725684985920* -->
<g id="edge36" class="edge">
<title>135725684984528&#45;&gt;135725684985920*</title>
<path fill="none" stroke="black" d="M465.74,-293.5C475.57,-293.5 485.18,-293.5 493.85,-293.5"/>
<polygon fill="black" stroke="black" points="493.91,-297 503.91,-293.5 493.91,-290 493.91,-297"/>
</g>
<!-- 135725684986832* -->
<g id="node19" class="node">
<title>135725684986832*</title>
<ellipse fill="none" stroke="black" cx="531" cy="-128.5" rx="27" ry="18"/>
<text text-anchor="middle" x="531" y="-124.8" font-family="Times,serif" font-size="14.00">*</text>
</g>
<!-- 135725684984528&#45;&gt;135725684986832* -->
<g id="edge19" class="edge">
<title>135725684984528&#45;&gt;135725684986832*</title>
<path fill="none" stroke="black" d="M453.88,-275.48C458.96,-272.63 463.75,-269.33 468,-265.5 485.09,-250.12 508.01,-191.06 520.65,-155.7"/>
<polygon fill="black" stroke="black" points="524.05,-156.58 524.07,-145.99 517.45,-154.25 524.05,-156.58"/>
</g>
<!-- 135725684984576 -->
<g id="node13" class="node">
<title>135725684984576</title>
<polygon fill="none" stroke="black" points="0,-206.5 0,-242.5 171,-242.5 171,-206.5 0,-206.5"/>
<text text-anchor="middle" x="42.5" y="-220.8" font-family="Times,serif" font-size="14.00">data &#45;0.1457</text>
<polyline fill="none" stroke="black" points="85,-206.5 85,-242.5 "/>
<text text-anchor="middle" x="128" y="-220.8" font-family="Times,serif" font-size="14.00">grad &#45;1.3735</text>
</g>
<!-- 135725684984576&#45;&gt;135725684985536* -->
<g id="edge26" class="edge">
<title>135725684984576&#45;&gt;135725684985536*</title>
<path fill="none" stroke="black" d="M171.3,-224.5C180.17,-224.5 188.81,-224.5 196.68,-224.5"/>
<polygon fill="black" stroke="black" points="196.89,-228 206.89,-224.5 196.89,-221 196.89,-228"/>
</g>
<!-- 135725684986640 -->
<g id="node14" class="node">
<title>135725684986640</title>
<polygon fill="none" stroke="black" points="594,-55.5 594,-91.5 765,-91.5 765,-55.5 594,-55.5"/>
<text text-anchor="middle" x="636.5" y="-69.8" font-family="Times,serif" font-size="14.00">data &#45;0.4158</text>
<polyline fill="none" stroke="black" points="679,-55.5 679,-91.5 "/>
<text text-anchor="middle" x="722" y="-69.8" font-family="Times,serif" font-size="14.00">grad &#45;0.8113</text>
</g>
<!-- 135725684987024+ -->
<g id="node24" class="node">
<title>135725684987024+</title>
<ellipse fill="none" stroke="black" cx="828" cy="-116.5" rx="27" ry="18"/>
<text text-anchor="middle" x="828" y="-112.8" font-family="Times,serif" font-size="14.00">+</text>
</g>
<!-- 135725684986640&#45;&gt;135725684987024+ -->
<g id="edge24" class="edge">
<title>135725684986640&#45;&gt;135725684987024+</title>
<path fill="none" stroke="black" d="M742.2,-91.61C759.61,-96.72 777.91,-102.09 793.04,-106.53"/>
<polygon fill="black" stroke="black" points="792.37,-109.98 802.96,-109.44 794.35,-103.27 792.37,-109.98"/>
</g>
<!-- 135725684986640+&#45;&gt;135725684986640 -->
<g id="edge6" class="edge">
<title>135725684986640+&#45;&gt;135725684986640</title>
<path fill="none" stroke="black" d="M558.19,-73.5C565.75,-73.5 574.46,-73.5 583.67,-73.5"/>
<polygon fill="black" stroke="black" points="583.84,-77 593.84,-73.5 583.84,-70 583.84,-77"/>
</g>
<!-- 135725684984624 -->
<g id="node16" class="node">
<title>135725684984624</title>
<polygon fill="none" stroke="black" points="299.5,-165.5 299.5,-201.5 465.5,-201.5 465.5,-165.5 299.5,-165.5"/>
<text text-anchor="middle" x="339.5" y="-179.8" font-family="Times,serif" font-size="14.00">data 0.9308</text>
<polyline fill="none" stroke="black" points="379.5,-165.5 379.5,-201.5 "/>
<text text-anchor="middle" x="422.5" y="-179.8" font-family="Times,serif" font-size="14.00">grad &#45;0.6867</text>
</g>
<!-- 135725684985728+ -->
<g id="node39" class="node">
<title>135725684985728+</title>
<ellipse fill="none" stroke="black" cx="531" cy="-238.5" rx="27" ry="18"/>
<text text-anchor="middle" x="531" y="-234.8" font-family="Times,serif" font-size="14.00">+</text>
</g>
<!-- 135725684984624&#45;&gt;135725684985728+ -->
<g id="edge20" class="edge">
<title>135725684984624&#45;&gt;135725684985728+</title>
<path fill="none" stroke="black" d="M442.9,-201.53C451.38,-204.38 459.95,-207.41 468,-210.5 478.44,-214.51 489.65,-219.39 499.62,-223.94"/>
<polygon fill="black" stroke="black" points="498.19,-227.14 508.74,-228.17 501.14,-220.79 498.19,-227.14"/>
</g>
<!-- 135725684984672 -->
<g id="node17" class="node">
<title>135725684984672</title>
<polygon fill="none" stroke="black" points="299.5,-330.5 299.5,-366.5 465.5,-366.5 465.5,-330.5 299.5,-330.5"/>
<text text-anchor="middle" x="339.5" y="-344.8" font-family="Times,serif" font-size="14.00">data 0.4162</text>
<polyline fill="none" stroke="black" points="379.5,-330.5 379.5,-366.5 "/>
<text text-anchor="middle" x="422.5" y="-344.8" font-family="Times,serif" font-size="14.00">grad &#45;2.3349</text>
</g>
<!-- 135725684984672&#45;&gt;135725684985920* -->
<g id="edge35" class="edge">
<title>135725684984672&#45;&gt;135725684985920*</title>
<path fill="none" stroke="black" d="M440.57,-330.37C449.79,-327.22 459.19,-323.87 468,-320.5 478.2,-316.6 489.17,-311.97 499,-307.65"/>
<polygon fill="black" stroke="black" points="500.67,-310.74 508.39,-303.48 497.83,-304.35 500.67,-310.74"/>
</g>
<!-- 135725684986832 -->
<g id="node18" class="node">
<title>135725684986832</title>
<polygon fill="none" stroke="black" points="596.5,-110.5 596.5,-146.5 762.5,-146.5 762.5,-110.5 596.5,-110.5"/>
<text text-anchor="middle" x="636.5" y="-124.8" font-family="Times,serif" font-size="14.00">data 2.1730</text>
<polyline fill="none" stroke="black" points="676.5,-110.5 676.5,-146.5 "/>
<text text-anchor="middle" x="719.5" y="-124.8" font-family="Times,serif" font-size="14.00">grad &#45;0.8113</text>
</g>
<!-- 135725684986832&#45;&gt;135725684987024+ -->
<g id="edge37" class="edge">
<title>135725684986832&#45;&gt;135725684987024+</title>
<path fill="none" stroke="black" d="M762.74,-121.76C772.57,-120.96 782.18,-120.17 790.85,-119.46"/>
<polygon fill="black" stroke="black" points="791.23,-122.94 800.91,-118.64 790.66,-115.97 791.23,-122.94"/>
</g>
<!-- 135725684986832*&#45;&gt;135725684986832 -->
<g id="edge7" class="edge">
<title>135725684986832*&#45;&gt;135725684986832</title>
<path fill="none" stroke="black" d="M558.19,-128.5C566.4,-128.5 575.98,-128.5 586.08,-128.5"/>
<polygon fill="black" stroke="black" points="586.32,-132 596.32,-128.5 586.32,-125 586.32,-132"/>
</g>
<!-- 135725684984816 -->
<g id="node20" class="node">
<title>135725684984816</title>
<polygon fill="none" stroke="black" points="0,-55.5 0,-91.5 171,-91.5 171,-55.5 0,-55.5"/>
<text text-anchor="middle" x="42.5" y="-69.8" font-family="Times,serif" font-size="14.00">data &#45;0.3850</text>
<polyline fill="none" stroke="black" points="85,-55.5 85,-91.5 "/>
<text text-anchor="middle" x="128" y="-69.8" font-family="Times,serif" font-size="14.00">grad &#45;1.6226</text>
</g>
<!-- 135725684984816&#45;&gt;135725684986448* -->
<g id="edge40" class="edge">
<title>135725684984816&#45;&gt;135725684986448*</title>
<path fill="none" stroke="black" d="M171.3,-73.5C180.17,-73.5 188.81,-73.5 196.68,-73.5"/>
<polygon fill="black" stroke="black" points="196.89,-77 206.89,-73.5 196.89,-70 196.89,-77"/>
</g>
<!-- 135725684984864 -->
<g id="node21" class="node">
<title>135725684984864</title>
<polygon fill="none" stroke="black" points="299.5,-55.5 299.5,-91.5 465.5,-91.5 465.5,-55.5 299.5,-55.5"/>
<text text-anchor="middle" x="339.5" y="-69.8" font-family="Times,serif" font-size="14.00">data 0.3542</text>
<polyline fill="none" stroke="black" points="379.5,-55.5 379.5,-91.5 "/>
<text text-anchor="middle" x="422.5" y="-69.8" font-family="Times,serif" font-size="14.00">grad &#45;0.8113</text>
</g>
<!-- 135725684984864&#45;&gt;135725684986640+ -->
<g id="edge30" class="edge">
<title>135725684984864&#45;&gt;135725684986640+</title>
<path fill="none" stroke="black" d="M465.74,-73.5C475.57,-73.5 485.18,-73.5 493.85,-73.5"/>
<polygon fill="black" stroke="black" points="493.91,-77 503.91,-73.5 493.91,-70 493.91,-77"/>
</g>
<!-- 135725684984912 -->
<g id="node22" class="node">
<title>135725684984912</title>
<polygon fill="none" stroke="black" points="299.5,-110.5 299.5,-146.5 465.5,-146.5 465.5,-110.5 299.5,-110.5"/>
<text text-anchor="middle" x="339.5" y="-124.8" font-family="Times,serif" font-size="14.00">data 0.6391</text>
<polyline fill="none" stroke="black" points="379.5,-110.5 379.5,-146.5 "/>
<text text-anchor="middle" x="422.5" y="-124.8" font-family="Times,serif" font-size="14.00">grad &#45;2.7584</text>
</g>
<!-- 135725684984912&#45;&gt;135725684986832* -->
<g id="edge25" class="edge">
<title>135725684984912&#45;&gt;135725684986832*</title>
<path fill="none" stroke="black" d="M465.74,-128.5C475.57,-128.5 485.18,-128.5 493.85,-128.5"/>
<polygon fill="black" stroke="black" points="493.91,-132 503.91,-128.5 493.91,-125 493.91,-132"/>
</g>
<!-- 135725684987024 -->
<g id="node23" class="node">
<title>135725684987024</title>
<polygon fill="none" stroke="black" points="891,-98.5 891,-134.5 1057,-134.5 1057,-98.5 891,-98.5"/>
<text text-anchor="middle" x="931" y="-112.8" font-family="Times,serif" font-size="14.00">data 1.7571</text>
<polyline fill="none" stroke="black" points="971,-98.5 971,-134.5 "/>
<text text-anchor="middle" x="1014" y="-112.8" font-family="Times,serif" font-size="14.00">grad &#45;0.8113</text>
</g>
<!-- 135725684987072ReLU -->
<g id="node26" class="node">
<title>135725684987072ReLU</title>
<ellipse fill="none" stroke="black" cx="1125.5" cy="-116.5" rx="32.49" ry="18"/>
<text text-anchor="middle" x="1125.5" y="-112.8" font-family="Times,serif" font-size="14.00">ReLU</text>
</g>
<!-- 135725684987024&#45;&gt;135725684987072ReLU -->
<g id="edge27" class="edge">
<title>135725684987024&#45;&gt;135725684987072ReLU</title>
<path fill="none" stroke="black" d="M1057.18,-116.5C1065.96,-116.5 1074.59,-116.5 1082.6,-116.5"/>
<polygon fill="black" stroke="black" points="1082.73,-120 1092.73,-116.5 1082.73,-113 1082.73,-120"/>
</g>
<!-- 135725684987024+&#45;&gt;135725684987024 -->
<g id="edge8" class="edge">
<title>135725684987024+&#45;&gt;135725684987024</title>
<path fill="none" stroke="black" d="M855.08,-116.5C862.64,-116.5 871.35,-116.5 880.56,-116.5"/>
<polygon fill="black" stroke="black" points="880.7,-120 890.7,-116.5 880.7,-113 880.7,-120"/>
</g>
<!-- 135725684987072 -->
<g id="node25" class="node">
<title>135725684987072</title>
<polygon fill="none" stroke="black" points="1194.49,-98.5 1194.49,-134.5 1360.49,-134.5 1360.49,-98.5 1194.49,-98.5"/>
<text text-anchor="middle" x="1234.49" y="-112.8" font-family="Times,serif" font-size="14.00">data 1.7571</text>
<polyline fill="none" stroke="black" points="1274.49,-98.5 1274.49,-134.5 "/>
<text text-anchor="middle" x="1317.49" y="-112.8" font-family="Times,serif" font-size="14.00">grad &#45;0.8113</text>
</g>
<!-- 135725684987744* -->
<g id="node37" class="node">
<title>135725684987744*</title>
<ellipse fill="none" stroke="black" cx="1423.99" cy="-102.5" rx="27" ry="18"/>
<text text-anchor="middle" x="1423.99" y="-98.8" font-family="Times,serif" font-size="14.00">*</text>
</g>
<!-- 135725684987072&#45;&gt;135725684987744* -->
<g id="edge21" class="edge">
<title>135725684987072&#45;&gt;135725684987744*</title>
<path fill="none" stroke="black" d="M1360.87,-108.52C1370.04,-107.63 1378.99,-106.76 1387.1,-105.98"/>
<polygon fill="black" stroke="black" points="1387.63,-109.44 1397.24,-104.99 1386.95,-102.48 1387.63,-109.44"/>
</g>
<!-- 135725684987072ReLU&#45;&gt;135725684987072 -->
<g id="edge9" class="edge">
<title>135725684987072ReLU&#45;&gt;135725684987072</title>
<path fill="none" stroke="black" d="M1158.31,-116.5C1166.2,-116.5 1175.06,-116.5 1184.29,-116.5"/>
<polygon fill="black" stroke="black" points="1184.43,-120 1194.43,-116.5 1184.43,-113 1184.43,-120"/>
</g>
<!-- 135725684985104 -->
<g id="node27" class="node">
<title>135725684985104</title>
<polygon fill="none" stroke="black" points="1193.99,-176.5 1193.99,-212.5 1360.99,-212.5 1360.99,-176.5 1193.99,-176.5"/>
<text text-anchor="middle" x="1236.49" y="-190.8" font-family="Times,serif" font-size="14.00">data &#45;0.6867</text>
<polyline fill="none" stroke="black" points="1278.99,-176.5 1278.99,-212.5 "/>
<text text-anchor="middle" x="1319.99" y="-190.8" font-family="Times,serif" font-size="14.00">grad 2.0544</text>
</g>
<!-- 135725684985104&#45;&gt;135725684987360* -->
<g id="edge15" class="edge">
<title>135725684985104&#45;&gt;135725684987360*</title>
<path fill="none" stroke="black" d="M1361.29,-202.52C1370.33,-203.4 1379.13,-204.25 1387.14,-205.03"/>
<polygon fill="black" stroke="black" points="1386.85,-208.51 1397.14,-206 1387.53,-201.55 1386.85,-208.51"/>
</g>
<!-- 135725684985152 -->
<g id="node28" class="node">
<title>135725684985152</title>
<polygon fill="none" stroke="black" points="1489.49,-135.5 1489.49,-171.5 1651.49,-171.5 1651.49,-135.5 1489.49,-135.5"/>
<text text-anchor="middle" x="1529.49" y="-149.8" font-family="Times,serif" font-size="14.00">data 0.2168</text>
<polyline fill="none" stroke="black" points="1569.49,-135.5 1569.49,-171.5 "/>
<text text-anchor="middle" x="1610.49" y="-149.8" font-family="Times,serif" font-size="14.00">grad 1.0000</text>
</g>
<!-- 135725684987552+ -->
<g id="node33" class="node">
<title>135725684987552+</title>
<ellipse fill="none" stroke="black" cx="1773.49" cy="-157.5" rx="27" ry="18"/>
<text text-anchor="middle" x="1773.49" y="-153.8" font-family="Times,serif" font-size="14.00">+</text>
</g>
<!-- 135725684985152&#45;&gt;135725684987552+ -->
<g id="edge32" class="edge">
<title>135725684985152&#45;&gt;135725684987552+</title>
<path fill="none" stroke="black" d="M1651.51,-155.09C1680.75,-155.67 1712.41,-156.3 1736,-156.77"/>
<polygon fill="black" stroke="black" points="1736.17,-160.28 1746.24,-156.98 1736.31,-153.28 1736.17,-160.28"/>
</g>
<!-- 135725684985200 -->
<g id="node29" class="node">
<title>135725684985200</title>
<polygon fill="none" stroke="black" points="1193.99,-43.5 1193.99,-79.5 1360.99,-79.5 1360.99,-43.5 1193.99,-43.5"/>
<text text-anchor="middle" x="1236.49" y="-57.8" font-family="Times,serif" font-size="14.00">data &#45;0.8113</text>
<polyline fill="none" stroke="black" points="1278.99,-43.5 1278.99,-79.5 "/>
<text text-anchor="middle" x="1319.99" y="-57.8" font-family="Times,serif" font-size="14.00">grad 1.7571</text>
</g>
<!-- 135725684985200&#45;&gt;135725684987744* -->
<g id="edge28" class="edge">
<title>135725684985200&#45;&gt;135725684987744*</title>
<path fill="none" stroke="black" d="M1342.29,-79.6C1358.48,-84.19 1375.23,-88.95 1389.26,-92.93"/>
<polygon fill="black" stroke="black" points="1388.36,-96.31 1398.94,-95.67 1390.27,-89.58 1388.36,-96.31"/>
</g>
<!-- 135725684987360 -->
<g id="node30" class="node">
<title>135725684987360</title>
<polygon fill="none" stroke="black" points="1486.99,-190.5 1486.99,-226.5 1653.99,-226.5 1653.99,-190.5 1486.99,-190.5"/>
<text text-anchor="middle" x="1529.49" y="-204.8" font-family="Times,serif" font-size="14.00">data &#45;1.4109</text>
<polyline fill="none" stroke="black" points="1571.99,-190.5 1571.99,-226.5 "/>
<text text-anchor="middle" x="1612.99" y="-204.8" font-family="Times,serif" font-size="14.00">grad 1.0000</text>
</g>
<!-- 135725684987360&#45;&gt;135725684987552+ -->
<g id="edge16" class="edge">
<title>135725684987360&#45;&gt;135725684987552+</title>
<path fill="none" stroke="black" d="M1642.64,-190.45C1675.14,-182.2 1712.13,-172.82 1738.3,-166.18"/>
<polygon fill="black" stroke="black" points="1739.28,-169.54 1748.11,-163.69 1737.56,-162.75 1739.28,-169.54"/>
</g>
<!-- 135725684987360*&#45;&gt;135725684987360 -->
<g id="edge10" class="edge">
<title>135725684987360*&#45;&gt;135725684987360</title>
<path fill="none" stroke="black" d="M1451.16,-208.5C1458.75,-208.5 1467.5,-208.5 1476.73,-208.5"/>
<polygon fill="black" stroke="black" points="1476.91,-212 1486.91,-208.5 1476.91,-205 1476.91,-212"/>
</g>
<!-- 135725684987552 -->
<g id="node32" class="node">
<title>135725684987552</title>
<polygon fill="none" stroke="black" points="1892.99,-137.5 1892.99,-173.5 2059.99,-173.5 2059.99,-137.5 1892.99,-137.5"/>
<text text-anchor="middle" x="1935.49" y="-151.8" font-family="Times,serif" font-size="14.00">data &#45;1.1940</text>
<polyline fill="none" stroke="black" points="1977.99,-137.5 1977.99,-173.5 "/>
<text text-anchor="middle" x="2018.99" y="-151.8" font-family="Times,serif" font-size="14.00">grad 1.0000</text>
</g>
<!-- 135725684987552&#45;&gt;135725684987936+ -->
<g id="edge33" class="edge">
<title>135725684987552&#45;&gt;135725684987936+</title>
<path fill="none" stroke="black" d="M2060.29,-140.6C2069.61,-138.93 2078.68,-137.29 2086.87,-135.82"/>
<polygon fill="black" stroke="black" points="2087.52,-139.26 2096.74,-134.04 2086.28,-132.37 2087.52,-139.26"/>
</g>
<!-- 135725684987552+&#45;&gt;135725684987552 -->
<g id="edge11" class="edge">
<title>135725684987552+&#45;&gt;135725684987552</title>
<path fill="none" stroke="black" d="M1800.77,-157.24C1821.8,-157.03 1852.64,-156.72 1882.57,-156.42"/>
<polygon fill="black" stroke="black" points="1882.71,-159.92 1892.67,-156.32 1882.64,-152.92 1882.71,-159.92"/>
</g>
<!-- 135725684985536 -->
<g id="node34" class="node">
<title>135725684985536</title>
<polygon fill="none" stroke="black" points="297,-220.5 297,-256.5 468,-256.5 468,-220.5 297,-220.5"/>
<text text-anchor="middle" x="339.5" y="-234.8" font-family="Times,serif" font-size="14.00">data &#45;0.2914</text>
<polyline fill="none" stroke="black" points="382,-220.5 382,-256.5 "/>
<text text-anchor="middle" x="425" y="-234.8" font-family="Times,serif" font-size="14.00">grad &#45;0.6867</text>
</g>
<!-- 135725684985536&#45;&gt;135725684985728+ -->
<g id="edge22" class="edge">
<title>135725684985536&#45;&gt;135725684985728+</title>
<path fill="none" stroke="black" d="M468.3,-238.5C477.17,-238.5 485.81,-238.5 493.68,-238.5"/>
<polygon fill="black" stroke="black" points="493.89,-242 503.89,-238.5 493.89,-235 493.89,-242"/>
</g>
<!-- 135725684985536*&#45;&gt;135725684985536 -->
<g id="edge12" class="edge">
<title>135725684985536*&#45;&gt;135725684985536</title>
<path fill="none" stroke="black" d="M260.85,-226.97C268.54,-227.7 277.44,-228.56 286.85,-229.46"/>
<polygon fill="black" stroke="black" points="286.54,-232.94 296.83,-230.41 287.2,-225.97 286.54,-232.94"/>
</g>
<!-- 135725684987744 -->
<g id="node36" class="node">
<title>135725684987744</title>
<polygon fill="none" stroke="black" points="1689.99,-84.5 1689.99,-120.5 1856.99,-120.5 1856.99,-84.5 1689.99,-84.5"/>
<text text-anchor="middle" x="1732.49" y="-98.8" font-family="Times,serif" font-size="14.00">data &#45;1.4256</text>
<polyline fill="none" stroke="black" points="1774.99,-84.5 1774.99,-120.5 "/>
<text text-anchor="middle" x="1815.99" y="-98.8" font-family="Times,serif" font-size="14.00">grad 1.0000</text>
</g>
<!-- 135725684987744&#45;&gt;135725684987936+ -->
<g id="edge23" class="edge">
<title>135725684987744&#45;&gt;135725684987936+</title>
<path fill="none" stroke="black" d="M1857.29,-108.93C1929.93,-114.58 2032.12,-122.52 2085.8,-126.69"/>
<polygon fill="black" stroke="black" points="2085.63,-130.18 2095.87,-127.47 2086.17,-123.21 2085.63,-130.18"/>
</g>
<!-- 135725684987744*&#45;&gt;135725684987744 -->
<g id="edge13" class="edge">
<title>135725684987744*&#45;&gt;135725684987744</title>
<path fill="none" stroke="black" d="M1451.11,-102.5C1499,-102.5 1602.97,-102.5 1679.75,-102.5"/>
<polygon fill="black" stroke="black" points="1679.92,-106 1689.92,-102.5 1679.92,-99 1679.92,-106"/>
</g>
<!-- 135725684985728 -->
<g id="node38" class="node">
<title>135725684985728</title>
<polygon fill="none" stroke="black" points="596.5,-220.5 596.5,-256.5 762.5,-256.5 762.5,-220.5 596.5,-220.5"/>
<text text-anchor="middle" x="636.5" y="-234.8" font-family="Times,serif" font-size="14.00">data 0.6395</text>
<polyline fill="none" stroke="black" points="676.5,-220.5 676.5,-256.5 "/>
<text text-anchor="middle" x="719.5" y="-234.8" font-family="Times,serif" font-size="14.00">grad &#45;0.6867</text>
</g>
<!-- 135725684985728&#45;&gt;135725684986112+ -->
<g id="edge38" class="edge">
<title>135725684985728&#45;&gt;135725684986112+</title>
<path fill="none" stroke="black" d="M762.74,-244.68C772.57,-245.41 782.18,-246.14 790.85,-246.79"/>
<polygon fill="black" stroke="black" points="790.68,-250.28 800.91,-247.54 791.2,-243.3 790.68,-250.28"/>
</g>
<!-- 135725684985728+&#45;&gt;135725684985728 -->
<g id="edge14" class="edge">
<title>135725684985728+&#45;&gt;135725684985728</title>
<path fill="none" stroke="black" d="M558.19,-238.5C566.4,-238.5 575.98,-238.5 586.08,-238.5"/>
<polygon fill="black" stroke="black" points="586.32,-242 596.32,-238.5 586.32,-235 586.32,-242"/>
</g>
</g>
</svg>
